<?xml version="1.0" encoding="UTF-8"?>
<svg version="1.1" xmlns="http://www.w3.org/2000/svg" width="100" height="96">
<path d="M0 0 C2.35975647 -0.36749268 2.35975647 -0.36749268 5.35180664 -0.35644531 C7.02848167 -0.36094696 7.02848167 -0.36094696 8.73902893 -0.36553955 C9.95050095 -0.35319275 11.16197296 -0.34084595 12.41015625 -0.328125 C13.6479332 -0.32625183 14.88571014 -0.32437866 16.16099548 -0.32244873 C19.45368522 -0.31398894 22.74594089 -0.29198356 26.03851318 -0.26428223 C29.39349993 -0.24060782 32.74845023 -0.23929595 36.10351562 -0.234375 C38.64323397 -0.22520529 41.18294832 -0.21482963 43.72265625 -0.203125 C44.9361525 -0.19887512 46.14964874 -0.19462524 47.3999176 -0.19024658 C49.0718644 -0.17583527 49.0718644 -0.17583527 50.77758789 -0.16113281 C51.76416885 -0.15430481 52.75074982 -0.14747681 53.76722717 -0.14044189 C56 -0 56 -0 57 1 C57.125 4.5 57.125 4.5 57 8 C55.40134037 9.59865963 53.69543968 9.16483531 51.48022461 9.20532227 C50.51930405 9.22526749 49.55838348 9.24521271 48.56834412 9.26576233 C47.523564 9.28247482 46.47878387 9.29918732 45.40234375 9.31640625 C43.80635094 9.3475779 43.80635094 9.3475779 42.17811584 9.37937927 C38.7646456 9.44499254 35.35109571 9.50381423 31.9375 9.5625 C29.62954891 9.60567403 27.321606 9.64928794 25.01367188 9.69335938 C19.3425285 9.8015172 13.67132851 9.90050301 8 10 C8 18.25 8 26.5 8 35 C13.11493917 35.7307056 17.79098071 36.13612932 22.90234375 36.09765625 C23.98619102 36.09553383 23.98619102 36.09553383 25.0919342 36.09336853 C27.37383365 36.08782225 29.65563079 36.0752802 31.9375 36.0625 C33.49544128 36.05747804 35.05338412 36.05291636 36.61132812 36.04882812 C40.40762211 36.03872623 44.20369809 36.01914102 48 36 C47.67 31.38 47.34 26.76 47 22 C38.09 21.67 29.18 21.34 20 21 C20 21.99 20 22.98 20 24 C20.68626465 23.99476318 21.3725293 23.98952637 22.07958984 23.98413086 C25.17805064 23.96339044 28.27649686 23.95034924 31.375 23.9375 C32.45523438 23.92912109 33.53546875 23.92074219 34.6484375 23.91210938 C36.1953125 23.90727539 36.1953125 23.90727539 37.7734375 23.90234375 C38.72653809 23.89710693 39.67963867 23.89187012 40.66162109 23.88647461 C43 24 43 24 45 25 C45 27.64 45 30.28 45 33 C40.78534426 35.10732787 35.31511802 34.26787337 30.67871094 34.29516602 C28.63929008 34.31237939 26.60149117 34.35626835 24.5625 34.40039062 C22.63277344 34.41295898 22.63277344 34.41295898 20.6640625 34.42578125 C19.48279785 34.44036377 18.3015332 34.45494629 17.08447266 34.4699707 C13.39040278 33.90711773 12.23260742 32.93844312 10 30 C9.57421875 27.66796875 9.57421875 27.66796875 9.6875 25.1875 C9.74357422 23.88039063 9.74357422 23.88039063 9.80078125 22.546875 C9.86652344 21.70640625 9.93226562 20.8659375 10 20 C10.05542969 19.28328125 10.11085938 18.5665625 10.16796875 17.828125 C10.375 15.9375 10.375 15.9375 11 13 C14.41053296 11.29473352 18.30602921 11.83679238 22.05859375 11.83203125 C22.95868668 11.82870285 23.8587796 11.82537445 24.78614807 11.82194519 C26.69181812 11.81687755 28.59749705 11.81453681 30.50317383 11.81469727 C33.42218616 11.81251147 36.34082024 11.79435601 39.25976562 11.77539062 C41.1093737 11.77245657 42.95898358 11.77047185 44.80859375 11.76953125 C45.68366074 11.76234573 46.55872772 11.75516022 47.46031189 11.74775696 C48.27448074 11.75083359 49.0886496 11.75391022 49.92749023 11.75708008 C50.64315659 11.75565506 51.35882294 11.75423004 52.09617615 11.75276184 C54 12 54 12 57 14 C57.37231445 16.94921875 57.37231445 16.94921875 57.36328125 20.6875 C57.36402901 21.67496216 57.36402901 21.67496216 57.36479187 22.68237305 C57.36245104 24.07441221 57.3527218 25.46645557 57.33618164 26.85839844 C57.31258934 28.9919205 57.3156196 31.12419319 57.32226562 33.2578125 C57.27909311 43.72090689 57.27909311 43.72090689 55 46 C52.72962952 46.26069641 52.72962952 46.26069641 49.86352539 46.2746582 C48.79223892 46.28419022 47.72095245 46.29372223 46.61720276 46.30354309 C45.45575241 46.30263168 44.29430206 46.30172028 43.09765625 46.30078125 C41.90901474 46.30506638 40.72037323 46.3093515 39.49571228 46.31376648 C36.97802366 46.31951819 34.46031842 46.32000389 31.94262695 46.31567383 C28.0819066 46.31251587 24.22195352 46.33595682 20.36132812 46.36132812 C17.9192718 46.36360115 15.47721341 46.3643046 13.03515625 46.36328125 C11.29601707 46.37709587 11.29601707 46.37709587 9.52174377 46.39118958 C8.44730515 46.38496078 7.37286652 46.37873199 6.26586914 46.37231445 C5.31925919 46.37294388 4.37264923 46.3735733 3.39735413 46.3742218 C1 46 1 46 -0.80584717 44.72453308 C-2.96948705 41.59991749 -2.4030569 37.73377707 -2.36328125 34.0625 C-2.36377975 33.18601807 -2.36427826 32.30953613 -2.36479187 31.40649414 C-2.36245194 29.55385063 -2.35272819 27.70120391 -2.33618164 25.84863281 C-2.31258961 23.01077893 -2.31562115 20.17386452 -2.32226562 17.3359375 C-2.31668879 15.53645272 -2.30957888 13.73697191 -2.30078125 11.9375 C-2.30169266 11.08744385 -2.30260406 10.2373877 -2.30354309 9.36157227 C-2.23105159 3.34657738 -2.23105159 3.34657738 0 0 Z " fill="#F5A100" transform="translate(43,0)"/>
<path d="M0 0 C1.07443863 -0.00307663 2.14887726 -0.00615326 3.25587463 -0.00932312 C4.99501381 0.00145515 4.99501381 0.00145515 6.76928711 0.01245117 C8.55368446 0.0131385 8.55368446 0.0131385 10.37413025 0.01383972 C12.89005531 0.01686237 15.40597849 0.02474901 17.921875 0.03710938 C21.78449084 0.05536255 25.64686702 0.05761909 29.50952148 0.05737305 C31.95027878 0.0622883 34.39103444 0.06811665 36.83178711 0.07495117 C38.57396263 0.07662041 38.57396263 0.07662041 40.35133362 0.07832336 C41.95826332 0.08789314 41.95826332 0.08789314 43.59765625 0.09765625 C45.01637779 0.10337395 45.01637779 0.10337395 46.46376038 0.10920715 C48.73413086 0.24291992 48.73413086 0.24291992 50.73413086 1.24291992 C50.7594021 7.49087667 50.7769643 13.73882034 50.7890625 19.98681641 C50.79410384 22.11410006 50.80093677 24.24138023 50.80957031 26.36865234 C50.82164465 29.41919818 50.827361 32.46969838 50.83178711 35.52026367 C50.83694839 36.47754868 50.84210968 37.43483368 50.84742737 38.42112732 C50.8475029 39.30196487 50.84757843 40.18280243 50.84765625 41.09033203 C50.84987686 41.86976669 50.85209747 42.64920135 50.85438538 43.45225525 C50.73413086 45.24291992 50.73413086 45.24291992 49.73413086 46.24291992 C46.59589636 46.49258559 43.44363473 46.42813783 40.29663086 46.43041992 C39.41168945 46.44266602 38.52674805 46.45491211 37.61499023 46.4675293 C36.7687207 46.46946289 35.92245117 46.47139648 35.05053711 46.47338867 C34.27137939 46.47749756 33.49222168 46.48160645 32.68945312 46.48583984 C30.73413086 46.24291992 30.73413086 46.24291992 28.73413086 44.24291992 C28.4753418 41.40136719 28.4753418 41.40136719 28.46850586 37.80932617 C28.46463867 35.87669922 28.46463867 35.87669922 28.46069336 33.9050293 C28.46697754 32.89605591 28.46697754 32.89605591 28.47338867 31.86669922 C28.48407221 29.81667343 28.47350123 27.76752745 28.46069336 25.7175293 C28.46327148 24.42782227 28.46584961 23.13811523 28.46850586 21.80932617 C28.47076172 20.62282471 28.47301758 19.43632324 28.4753418 18.21386719 C28.73413086 15.24291992 28.73413086 15.24291992 30.73413086 12.24291992 C33.81334218 11.98631898 35.94550079 11.84860489 38.73413086 13.24291992 C38.73413086 21.16291992 38.73413086 29.08291992 38.73413086 37.24291992 C39.72413086 37.24291992 40.71413086 37.24291992 41.73413086 37.24291992 C41.73413086 28.00291992 41.73413086 18.76291992 41.73413086 9.24291992 C36.78413086 9.57291992 31.83413086 9.90291992 26.73413086 10.24291992 C26.69654663 11.82544556 26.69654663 11.82544556 26.65820312 13.43994141 C26.56428977 17.3406262 26.46403052 21.24112618 26.36181641 25.14160156 C26.31840647 26.83231291 26.27673597 28.52306983 26.23681641 30.21386719 C26.17925992 32.63905598 26.11552437 35.06401407 26.05053711 37.48901367 C26.02546837 38.62964516 26.02546837 38.62964516 25.99989319 39.7933197 C25.84800257 45.12904822 25.84800257 45.12904822 24.73413086 46.24291992 C21.23413086 46.36791992 21.23413086 46.36791992 17.73413086 46.24291992 C15.72909577 44.23788483 16.47824423 40.24266549 16.41772461 37.48901367 C16.39694351 36.71356705 16.37616241 35.93812042 16.35475159 35.13917542 C16.28917284 32.65301684 16.23033287 30.16674947 16.17163086 27.68041992 C16.12845353 25.99876788 16.0848395 24.31712699 16.04077148 22.63549805 C15.93348307 18.50475121 15.83223954 14.37389457 15.73413086 10.24291992 C11.11413086 10.24291992 6.49413086 10.24291992 1.73413086 10.24291992 C1.74573242 11.52166992 1.75733398 12.80041992 1.76928711 14.11791992 C1.77867355 15.82625178 1.78777283 17.53458524 1.79663086 19.24291992 C1.80500977 20.08209961 1.81338867 20.9212793 1.82202148 21.78588867 C1.84237119 27.03611331 1.49781293 32.04747654 0.73413086 37.24291992 C1.72413086 37.24291992 2.71413086 37.24291992 3.73413086 37.24291992 C3.71056519 36.26681763 3.71056519 36.26681763 3.68652344 35.27099609 C3.62418437 32.32422568 3.58514402 29.37759394 3.54663086 26.43041992 C3.52149414 25.40625977 3.49635742 24.38209961 3.47045898 23.3269043 C3.45595703 21.85253906 3.45595703 21.85253906 3.44116211 20.34838867 C3.41759644 18.98943481 3.41759644 18.98943481 3.39355469 17.60302734 C3.73413086 15.24291992 3.73413086 15.24291992 4.81494141 13.36132812 C7.85436031 11.59010589 10.41236642 12.55349711 13.73413086 13.24291992 C13.78351235 17.62115909 13.81984126 21.99925138 13.84399414 26.37768555 C13.85406129 27.86762312 13.86771603 29.35754089 13.88500977 30.84741211 C13.90922739 32.9871102 13.9206065 35.12654745 13.92944336 37.26635742 C13.93991699 38.55461426 13.95039062 39.84287109 13.96118164 41.17016602 C13.73413086 44.24291992 13.73413086 44.24291992 11.73413086 46.24291992 C9.88647461 46.50170898 9.88647461 46.50170898 7.67163086 46.50854492 C6.47666992 46.51241211 6.47666992 46.51241211 5.25756836 46.51635742 C4.42483398 46.50862305 3.59209961 46.50088867 2.73413086 46.49291992 C1.4850293 46.50452148 1.4850293 46.50452148 0.21069336 46.51635742 C-0.58594727 46.5137793 -1.38258789 46.51120117 -2.20336914 46.50854492 C-2.93426758 46.50628906 -3.66516602 46.5040332 -4.41821289 46.50170898 C-6.26586914 46.24291992 -6.26586914 46.24291992 -8.26586914 44.24291992 C-8.52656555 42.42138672 -8.52656555 42.42138672 -8.54052734 40.19213867 C-8.55005936 39.35787354 -8.55959137 38.5236084 -8.56941223 37.6640625 C-8.56850082 36.76196045 -8.56758942 35.8598584 -8.56665039 34.93041992 C-8.57093552 34.00575928 -8.57522064 33.08109863 -8.57963562 32.12841797 C-8.58538417 30.17147644 -8.58587533 28.21451354 -8.58154297 26.25756836 C-8.57838178 23.25492121 -8.60183976 20.25325773 -8.62719727 17.25073242 C-8.62946999 15.35229617 -8.63017388 13.45385726 -8.62915039 11.55541992 C-8.63836014 10.65331787 -8.64756989 9.75121582 -8.65705872 8.82177734 C-8.65082993 7.98751221 -8.64460114 7.15324707 -8.63818359 6.29370117 C-8.63881302 5.55804932 -8.63944244 4.82239746 -8.64009094 4.06445312 C-7.73736317 -0.32959499 -3.62686027 -0.00545984 0 0 Z " fill="#D5000F" transform="translate(49.265869140625,48.757080078125)"/>
<path d="M0 0 C0.77070328 -0.0033284 1.54140656 -0.0066568 2.33546448 -0.01008606 C3.96883546 -0.01515835 5.60221685 -0.01749429 7.2355957 -0.01733398 C9.73991924 -0.01951905 12.24380146 -0.0376672 14.74804688 -0.05664062 C16.33202974 -0.05957472 17.9160147 -0.06155941 19.5 -0.0625 C20.25212265 -0.06968552 21.0042453 -0.07687103 21.77915955 -0.08427429 C27.08758346 -0.06085404 27.08758346 -0.06085404 29.31640625 2.16796875 C29.51534555 4.85657491 29.59475926 7.41902058 29.56640625 10.10546875 C29.57800781 11.19891602 29.57800781 11.19891602 29.58984375 12.31445312 C29.57586796 16.12635098 29.47766552 17.92607985 27.31640625 21.16796875 C24.88623047 21.50854492 24.88623047 21.50854492 21.87109375 21.4609375 C20.79472656 21.45126953 19.71835937 21.44160156 18.609375 21.43164062 C17.48144531 21.40650391 16.35351562 21.38136719 15.19140625 21.35546875 C14.05574219 21.34193359 12.92007812 21.32839844 11.75 21.31445312 C8.93833238 21.27901194 6.12760208 21.22960392 3.31640625 21.16796875 C3.21875 15.015625 3.21875 15.015625 3.31640625 13.16796875 C4.31640625 12.16796875 4.31640625 12.16796875 7.6953125 12.0703125 C9.08987702 12.07698506 10.48442368 12.08894343 11.87890625 12.10546875 C12.58982422 12.10998047 13.30074219 12.11449219 14.03320312 12.11914062 C15.79430638 12.13096011 17.55536661 12.14889612 19.31640625 12.16796875 C19.31640625 11.17796875 19.31640625 10.18796875 19.31640625 9.16796875 C13.04640625 9.16796875 6.77640625 9.16796875 0.31640625 9.16796875 C0.31640625 14.11796875 0.31640625 19.06796875 0.31640625 24.16796875 C2.15847656 24.14476563 4.00054688 24.1215625 5.8984375 24.09765625 C8.30858971 24.0789002 10.71874628 24.06069983 13.12890625 24.04296875 C14.34384766 24.02621094 15.55878906 24.00945313 16.81054688 23.9921875 C17.97392578 23.98574219 19.13730469 23.97929687 20.3359375 23.97265625 C21.94625854 23.9569458 21.94625854 23.9569458 23.58911133 23.94091797 C26.31640625 24.16796875 26.31640625 24.16796875 29.31640625 26.16796875 C29.6887207 28.90185547 29.6887207 28.90185547 29.6796875 32.34765625 C29.67904297 33.58644531 29.67839844 34.82523438 29.67773438 36.1015625 C29.66162109 37.40222656 29.64550781 38.70289063 29.62890625 40.04296875 C29.63212891 41.33589844 29.63535156 42.62882812 29.63867188 43.9609375 C29.57856158 54.48570447 29.57856158 54.48570447 27.31640625 58.16796875 C22.35018276 58.19261973 17.38399459 58.21080524 12.41772461 58.22290039 C10.72696309 58.22794065 9.03620596 58.2347728 7.34545898 58.2434082 C4.92039918 58.25548732 2.49539681 58.26119998 0.0703125 58.265625 C-1.07031898 58.27336693 -1.07031898 58.27336693 -2.23399353 58.28126526 C-4.05091945 58.28146113 -5.86772502 58.22994152 -7.68359375 58.16796875 C-8.68359375 57.16796875 -8.68359375 57.16796875 -8.79711914 55.31030273 C-8.79188232 54.51954346 -8.78664551 53.72878418 -8.78125 52.9140625 C-8.77802734 52.06005859 -8.77480469 51.20605469 -8.77148438 50.32617188 C-8.76310547 49.42833984 -8.75472656 48.53050781 -8.74609375 47.60546875 C-8.74158203 46.70376953 -8.73707031 45.80207031 -8.73242188 44.87304688 C-8.720596 42.63795561 -8.70411595 40.40299438 -8.68359375 38.16796875 C-4.18074571 35.60284525 -0.19038855 35.83645414 4.87890625 35.85546875 C5.74193359 35.83935547 6.60496094 35.82324219 7.49414062 35.80664062 C8.7384082 35.80567383 8.7384082 35.80567383 10.0078125 35.8046875 C10.76263916 35.80170654 11.51746582 35.79872559 12.29516602 35.7956543 C14.87494034 36.27085128 15.78595481 37.06125329 17.31640625 39.16796875 C16.88162364 44.60275136 16.88162364 44.60275136 15.31640625 46.16796875 C12.78591223 46.24110442 10.28335788 46.26044402 7.75390625 46.23046875 C7.04298828 46.22595703 6.33207031 46.22144531 5.59960938 46.21679688 C3.83850612 46.20497739 2.07744589 46.18704138 0.31640625 46.16796875 C0.31640625 47.15796875 0.31640625 48.14796875 0.31640625 49.16796875 C6.58640625 49.16796875 12.85640625 49.16796875 19.31640625 49.16796875 C19.31640625 44.21796875 19.31640625 39.26796875 19.31640625 34.16796875 C17.46273438 34.17957031 15.6090625 34.19117188 13.69921875 34.203125 C11.27994892 34.21250201 8.86067801 34.22160231 6.44140625 34.23046875 C5.21808594 34.23884766 3.99476562 34.24722656 2.734375 34.25585938 C1.56777344 34.25908203 0.40117187 34.26230469 -0.80078125 34.265625 C-2.41895752 34.27348022 -2.41895752 34.27348022 -4.06982422 34.28149414 C-6.68359375 34.16796875 -6.68359375 34.16796875 -8.68359375 33.16796875 C-8.70824767 28.6289917 -8.72643164 24.09005332 -8.73852539 19.55102539 C-8.74356515 18.00577109 -8.75039695 16.46052159 -8.7590332 14.9152832 C-8.77111451 12.69871846 -8.77682548 10.48221657 -8.78125 8.265625 C-8.78641129 7.57082535 -8.79157257 6.8760257 -8.79689026 6.16017151 C-8.79708652 4.49567545 -8.74548504 2.83131376 -8.68359375 1.16796875 C-6.68974596 -0.82587904 -2.73054363 0.00402921 0 0 Z " fill="#0091DA" transform="translate(8.68359375,-0.16796875)"/>
<path d="M0 0 C0.72348129 -0.00191345 1.44696259 -0.0038269 2.19236755 -0.00579834 C3.71963855 -0.00715785 5.2469212 -0.00347774 6.77416992 0.00488281 C9.11598533 0.01560162 11.45703633 0.00497209 13.79882812 -0.0078125 C15.28255378 -0.00649117 16.76627896 -0.00392932 18.25 0 C19.30315147 -0.00607269 19.30315147 -0.00607269 20.37757874 -0.01226807 C25.32865822 0.03568947 25.32865822 0.03568947 27.55859375 2.265625 C27.80151367 4.22094727 27.80151367 4.22094727 27.7890625 6.58203125 C27.78712891 7.42830078 27.78519531 8.27457031 27.78320312 9.14648438 C27.76483398 10.47389648 27.76483398 10.47389648 27.74609375 11.828125 C27.74544922 12.71693359 27.74480469 13.60574219 27.74414062 14.52148438 C27.69880472 21.12541403 27.69880472 21.12541403 26.55859375 22.265625 C24.79000182 22.36508953 23.01747924 22.39642717 21.24609375 22.3984375 C20.17101562 22.39972656 19.0959375 22.40101562 17.98828125 22.40234375 C16.85648438 22.39847656 15.7246875 22.39460938 14.55859375 22.390625 C13.42679688 22.39449219 12.295 22.39835937 11.12890625 22.40234375 C10.05382812 22.40105469 8.97875 22.39976563 7.87109375 22.3984375 C6.38029297 22.39674561 6.38029297 22.39674561 4.859375 22.39501953 C2.55859375 22.265625 2.55859375 22.265625 1.55859375 21.265625 C1.51766438 18.93265067 1.51617652 16.59857275 1.55859375 14.265625 C5.45577546 12.39896758 8.0994356 12.12596739 12.37109375 12.640625 C13.83482422 12.80691406 13.83482422 12.80691406 15.328125 12.9765625 C16.06417969 13.07195312 16.80023437 13.16734375 17.55859375 13.265625 C17.55859375 11.945625 17.55859375 10.625625 17.55859375 9.265625 C16.53185547 9.51119141 16.53185547 9.51119141 15.484375 9.76171875 C10.21105937 10.66994 4.89694083 10.3195477 -0.44140625 10.265625 C-0.44140625 14.885625 -0.44140625 19.505625 -0.44140625 24.265625 C2.46478516 24.35650391 2.46478516 24.35650391 5.4296875 24.44921875 C7.95183134 24.53360274 10.47396632 24.6182518 12.99609375 24.703125 C14.27548828 24.74244141 15.55488281 24.78175781 16.87304688 24.82226562 C18.08798828 24.86416016 19.30292969 24.90605469 20.5546875 24.94921875 C21.68060303 24.98587646 22.80651855 25.02253418 23.96655273 25.06030273 C26.55859375 25.265625 26.55859375 25.265625 27.55859375 26.265625 C27.68359375 29.765625 27.68359375 29.765625 27.55859375 33.265625 C25.56474596 35.25947279 21.60554363 34.42956454 18.875 34.43359375 C17.71894508 34.43858635 17.71894508 34.43858635 16.53953552 34.44367981 C14.90616454 34.4487521 13.27278315 34.45108804 11.6394043 34.45092773 C9.13508076 34.4531128 6.63119854 34.47126095 4.12695312 34.49023438 C2.54297026 34.49316847 0.9589853 34.49515316 -0.625 34.49609375 C-1.37712265 34.50327927 -2.1292453 34.51046478 -2.90415955 34.51786804 C-8.21258346 34.49444779 -8.21258346 34.49444779 -10.44140625 32.265625 C-10.83961236 27.98977627 -10.7704502 23.69953151 -10.75708008 19.40722656 C-10.75391802 17.27357015 -10.77738263 15.14129756 -10.80273438 13.0078125 C-10.80500713 11.65625175 -10.80571097 10.30468727 -10.8046875 8.953125 C-10.80766846 7.71949219 -10.81064941 6.48585938 -10.8137207 5.21484375 C-10.62942505 3.75498047 -10.62942505 3.75498047 -10.44140625 2.265625 C-6.82625824 -0.14447368 -4.17622982 -0.02415065 0 0 Z " fill="#90C21F" transform="translate(10.44140625,60.734375)"/>
</svg>
